<?xml version="1.0" encoding="utf-8"?>
<!-- Generator: Adobe Illustrator 27.5.0, SVG Export Plug-In . SVG Version: 6.00 Build 0)  -->
<svg version="1.1" xmlns="http://www.w3.org/2000/svg" xmlns:xlink="http://www.w3.org/1999/xlink" x="0px" y="0px"
	 viewBox="0 0 750 500" style="enable-background:new 0 0 750 500;" xml:space="preserve">
<g id="BACKGROUND">
	<rect style="fill:#333D7A;" width="750" height="500"/>
</g>
<g id="OBJECTS">
	<path style="fill:#FFFFFF;" d="M678.193,63.18v370.9c0,6.38-5.17,11.55-11.55,11.55H83.353c-6.38,0-11.55-5.17-11.55-11.55V63.18
		c0-6.38,5.17-11.55,11.55-11.55h583.29C673.023,51.63,678.193,56.8,678.193,63.18z"/>
	<path style="fill:#D1D7FA;" d="M678.193,62.982v370.9c0,6.38-5.17,11.55-11.55,11.55h-230.03v-394h230.03
		C673.023,51.432,678.193,56.602,678.193,62.982z"/>
	<g>
		<path style="fill:#889EFA;" d="M678.193,348.3v87.63c0,5.4-5.17,9.78-11.55,9.78h-353.08V348.3H678.193z"/>
		<rect x="532.305" y="133.928" style="fill:#889EFA;" width="102" height="102"/>
		<rect x="641.474" y="265.407" style="fill:#889EFA;" width="22.417" height="22.417"/>
		<rect x="377.279" y="72.851" style="fill:#889EFA;" width="30.976" height="30.976"/>
		<rect x="266.981" y="387.284" style="fill:#889EFA;" width="21.084" height="21.084"/>
	</g>
	<g>
		<g>
			<g>
				<g>
					<g>
						<path style="fill:#454A49;" d="M112.439,425.401c0.518,0.332,1.132,0.526,1.793,0.526c2.171,0,3.398-1.834,3.324-3.479
							c0.228-0.165,0.427-0.371,0.583-0.605c-0.21,0.093-0.435,0.156-0.671,0.184c0.241-0.145,0.427-0.374,0.514-0.647
							c-0.226,0.134-0.476,0.231-0.742,0.284c-0.214-0.227-0.517-0.369-0.854-0.369c-0.755,0-1.31,0.704-1.139,1.436
							c-0.972-0.049-1.834-0.514-2.41-1.222c-0.306,0.526-0.159,1.214,0.362,1.561c-0.192-0.006-0.372-0.059-0.53-0.146
							c-0.013,0.542,0.376,1.049,0.938,1.161c-0.165,0.045-0.345,0.055-0.528,0.02c0.149,0.465,0.581,0.803,1.092,0.812
							C113.679,425.302,113.06,425.474,112.439,425.401z"/>
					</g>
					<g>
						<path style="fill:#454A49;" d="M140.708,426.315h1.302v-3.261h0.909l0.097-1.092h-1.005c0,0,0-0.408,0-0.622
							c0-0.257,0.052-0.359,0.301-0.359c0.2,0,0.705,0,0.705,0v-1.133c0,0-0.743,0-0.902,0c-0.969,0-1.406,0.427-1.406,1.243
							c0,0.712,0,0.871,0,0.871h-0.677v1.105h0.677V426.315z"/>
					</g>
					<g>
						<path style="fill:#454A49;" d="M128.738,420.809c0.783,0,0.876,0.003,1.185,0.017c0.286,0.013,0.441,0.061,0.545,0.101
							c0.137,0.053,0.234,0.117,0.337,0.219c0.103,0.103,0.166,0.2,0.22,0.337c0.04,0.103,0.088,0.259,0.101,0.545
							c0.014,0.309,0.017,0.402,0.017,1.185c0,0.783-0.003,0.876-0.017,1.185c-0.013,0.286-0.061,0.441-0.101,0.545
							c-0.053,0.137-0.117,0.235-0.22,0.337c-0.103,0.103-0.2,0.166-0.337,0.219c-0.103,0.04-0.259,0.088-0.545,0.101
							c-0.309,0.014-0.402,0.017-1.185,0.017c-0.783,0-0.876-0.003-1.185-0.017c-0.286-0.013-0.441-0.061-0.545-0.101
							c-0.137-0.053-0.235-0.117-0.337-0.219c-0.103-0.103-0.166-0.2-0.219-0.337c-0.04-0.103-0.088-0.259-0.101-0.545
							c-0.014-0.309-0.017-0.402-0.017-1.185c0-0.783,0.003-0.876,0.017-1.185c0.013-0.286,0.061-0.441,0.101-0.545
							c0.053-0.137,0.117-0.235,0.219-0.337c0.103-0.103,0.2-0.166,0.337-0.219c0.103-0.04,0.259-0.088,0.545-0.101
							C127.862,420.812,127.955,420.809,128.738,420.809 M128.738,420.281c-0.796,0-0.896,0.003-1.209,0.018
							c-0.312,0.014-0.525,0.064-0.712,0.136c-0.193,0.075-0.357,0.175-0.52,0.338c-0.163,0.163-0.263,0.327-0.338,0.519
							c-0.072,0.187-0.122,0.4-0.136,0.712c-0.014,0.313-0.018,0.413-0.018,1.209s0.003,0.896,0.018,1.209
							c0.014,0.312,0.064,0.525,0.136,0.712c0.075,0.193,0.175,0.356,0.338,0.519c0.163,0.163,0.327,0.263,0.52,0.338
							c0.186,0.072,0.4,0.122,0.712,0.136c0.313,0.014,0.413,0.018,1.209,0.018c0.797,0,0.897-0.003,1.209-0.018
							c0.312-0.014,0.525-0.064,0.712-0.136c0.193-0.075,0.356-0.175,0.519-0.338c0.163-0.163,0.263-0.327,0.338-0.519
							c0.073-0.187,0.122-0.4,0.136-0.712c0.014-0.313,0.018-0.413,0.018-1.209s-0.003-0.896-0.018-1.209
							c-0.014-0.312-0.064-0.525-0.136-0.712c-0.075-0.193-0.175-0.356-0.338-0.519c-0.163-0.163-0.327-0.263-0.519-0.338
							c-0.187-0.072-0.4-0.122-0.712-0.136C129.635,420.284,129.535,420.281,128.738,420.281"/>
						<path style="fill:#454A49;" d="M128.738,421.708c-0.832,0-1.506,0.674-1.506,1.506c0,0.832,0.674,1.506,1.506,1.506
							c0.832,0,1.506-0.674,1.506-1.506C130.244,422.382,129.57,421.708,128.738,421.708 M128.738,424.191
							c-0.54,0-0.978-0.438-0.978-0.978c0-0.54,0.438-0.978,0.978-0.978c0.54,0,0.978,0.438,0.978,0.978
							C129.716,423.754,129.278,424.191,128.738,424.191"/>
						<path style="fill:#454A49;" d="M130.656,421.648c0,0.194-0.158,0.352-0.352,0.352s-0.352-0.158-0.352-0.352
							c0-0.194,0.158-0.352,0.352-0.352S130.656,421.454,130.656,421.648"/>
					</g>
				</g>
			</g>
		</g>
	</g>
	<g>
		
			<text transform="matrix(1 0 0 1 109.3076 87.8041)" style="fill:#272C31; font-family:'Montserrat-ExtraBold'; font-size:12.9363px;">logo</text>
		<g>
			<g>
				<g>
					
						<text transform="matrix(1 0 0 1 190.7409 84.5375)" style="fill:#272C31; font-family:'Montserrat-SemiBold'; font-size:5px; letter-spacing:1;">HOME</text>
				</g>
				<g>
					
						<text transform="matrix(1 0 0 1 239.5866 84.5375)" style="fill:#272C31; font-family:'Montserrat-SemiBold'; font-size:5px; letter-spacing:1;">ABOUT US</text>
				</g>
				<g>
					
						<text transform="matrix(1 0 0 1 298.6413 84.5375)" style="fill:#272C31; font-family:'Montserrat-SemiBold'; font-size:5px; letter-spacing:1;">CONTACT</text>
				</g>
			</g>
		</g>
		<g>
			<g>
				<path style="fill:none;stroke:#272C31;stroke-width:0.75;stroke-miterlimit:10;" d="M646.533,87.53h-7.419
					c-0.488,0-0.883-0.395-0.883-0.883v-6.071h9.184v6.071C647.416,87.135,647.02,87.53,646.533,87.53z"/>
				<path style="fill:none;stroke:#272C31;stroke-width:0.75;stroke-miterlimit:10;" d="M640.625,80.398V79.03
					c0-0.378,0.306-0.684,0.684-0.684h3.028c0.378,0,0.684,0.306,0.684,0.684v1.369"/>
			</g>
			<g>
				<path style="fill:none;stroke:#272C31;stroke-width:0.75;stroke-miterlimit:10;" d="M619.436,82.652
					c0,0.884-0.358,1.684-0.938,2.264c-0.579,0.579-1.38,0.938-2.264,0.938c-1.768,0-3.201-1.433-3.201-3.201
					c0-1.768,1.433-3.201,3.201-3.201C618.003,79.45,619.436,80.883,619.436,82.652z"/>
				
					<line style="fill:none;stroke:#272C31;stroke-width:0.75;stroke-miterlimit:10;" x1="621.638" y1="87.519" x2="618.498" y2="84.915"/>
			</g>
		</g>
	</g>
	<g>
		
			<text transform="matrix(1 0 0 1 109.8697 211.8877)" style="fill:#06165C; font-family:'Montserrat-ExtraBold'; font-size:50px; letter-spacing:2;">CMS</text>
		<g>
			<rect x="111.473" y="253.989" style="fill:none;" width="124.69" height="30.963"/>
			<text transform="matrix(1 0 0 1 111.4732 257.4043)"><tspan x="0" y="0" style="fill:#454A49; font-family:'Montserrat-Regular'; font-size:4.6027px;">Lorem ipsum dolor sit amet, consectetuer adipiscing </tspan><tspan x="0" y="6.084" style="fill:#454A49; font-family:'Montserrat-Regular'; font-size:4.6027px;">elit, sed diam nonummy nibh euismod tincidunt ut </tspan><tspan x="0" y="12.168" style="fill:#454A49; font-family:'Montserrat-Regular'; font-size:4.6027px;">laoreet dolore magna aliquam erat volutpat. Ut wisi </tspan><tspan x="0" y="18.252" style="fill:#454A49; font-family:'Montserrat-Regular'; font-size:4.6027px;">enim ad minim veniam, quis nostrud </tspan></text>
		</g>
		<text transform="matrix(1 0 0 1 111.8102 242.0459)" style="fill:#0B28A8; font-family:'Montserrat-Bold'; font-size:8.6776px;">LOREM IPSUM DOLOR SIT</text>
		<g>
			<rect x="111.781" y="328.674" style="fill:#0B28A8;" width="53.315" height="14.686"/>
			
				<text transform="matrix(1 0 0 1 123.0602 337.5615)" style="fill:#FFFFFF; font-family:'Montserrat-SemiBold'; font-size:3.8648px;">START NOW</text>
		</g>
		<g>
			<g>
				<rect x="123.405" y="292.644" style="fill:none;" width="73.903" height="26.32"/>
				<text transform="matrix(1 0 0 1 123.4049 296.0596)"><tspan x="0" y="0" style="fill:#454A49; font-family:'Montserrat-Regular'; font-size:4.6027px;">Lorem ipsum dolor sit amet, </tspan><tspan x="0" y="6.084" style="fill:#454A49; font-family:'Montserrat-Regular'; font-size:4.6027px;">consectetuer adipiscing elit, </tspan><tspan x="0" y="12.168" style="fill:#454A49; font-family:'Montserrat-Regular'; font-size:4.6027px;">sed diam nonummy   </tspan></text>
			</g>
			<path style="fill:#4C6CFA;" d="M116.18,294.599c0,1.023-0.829,1.852-1.852,1.852c-1.023,0-1.852-0.829-1.852-1.852
				s0.829-1.852,1.852-1.852C115.351,292.747,116.18,293.576,116.18,294.599z"/>
		</g>
	</g>
	<g>
		<rect x="288.214" y="329.262" style="fill:#D1D7FA;" width="89.844" height="57.813"/>
		<rect x="288.216" y="318.806" style="fill:#06165C;" width="89.735" height="12.603"/>
		<g>
			<text transform="matrix(1 0 0 1 314.7062 371.5195)"><tspan x="0" y="0" style="fill:#FFFFFF; font-family:'Antonio-Light'; font-size:34.778px;">&lt;</tspan><tspan x="12.396" y="0" style="fill:#FFFFFF; font-family:'Antonio-Light'; font-size:32.3796px;">/</tspan><tspan x="24.033" y="0" style="fill:#FFFFFF; font-family:'Antonio-Light'; font-size:34.778px;">&gt;</tspan></text>
		</g>
		<path style="fill:#FFFFFF;" d="M368.428,325.12c0,1.397,1.133,2.53,2.53,2.53c1.397,0,2.53-1.133,2.53-2.53
			c0-1.397-1.132-2.53-2.53-2.53C369.561,322.591,368.428,323.723,368.428,325.12z"/>
		<path style="fill:#FFFFFF;" d="M359.575,325.12c0,1.397,1.133,2.53,2.53,2.53c1.397,0,2.53-1.133,2.53-2.53
			c0-1.397-1.133-2.53-2.53-2.53C360.707,322.591,359.575,323.723,359.575,325.12z"/>
		<path style="fill:#FFFFFF;" d="M350.722,325.12c0,1.397,1.133,2.53,2.53,2.53s2.53-1.133,2.53-2.53c0-1.397-1.133-2.53-2.53-2.53
			S350.722,323.723,350.722,325.12z"/>
	</g>
	<g>
		<rect x="610.08" y="168.347" style="fill:#E3E7FA;" width="46.732" height="46.732"/>
		
			<line style="fill:none;stroke:#333D7A;stroke-width:2;stroke-linecap:round;stroke-miterlimit:10;" x1="630.098" y1="194.939" x2="646.467" y2="211.308"/>
		
			<line style="fill:none;stroke:#333D7A;stroke-width:2;stroke-linecap:round;stroke-miterlimit:10;" x1="614.147" y1="210.889" x2="630.098" y2="194.939"/>
		
			<line style="fill:none;stroke:#333D7A;stroke-width:2;stroke-linecap:round;stroke-miterlimit:10;" x1="644.812" y1="198.339" x2="650.518" y2="204.045"/>
		
			<line style="fill:none;stroke:#333D7A;stroke-width:2;stroke-linecap:round;stroke-miterlimit:10;" x1="639.252" y1="203.899" x2="644.812" y2="198.339"/>
		<path style="fill:none;stroke:#333D7A;stroke-width:2;stroke-linecap:round;stroke-miterlimit:10;" d="M641.619,178.901
			c0,2.602,2.11,4.712,4.712,4.712c2.602,0,4.712-2.11,4.712-4.712s-2.11-4.712-4.712-4.712
			C643.729,174.189,641.619,176.299,641.619,178.901z"/>
	</g>
	<g>
		<path style="fill:none;stroke:#333D7A;stroke-width:2;stroke-linecap:round;stroke-miterlimit:10;" d="M502.191,363.885
			c0,2.602,2.11,4.712,4.712,4.712c2.602,0,4.712-2.11,4.712-4.712c0-2.602-2.11-4.712-4.712-4.712
			C504.301,359.173,502.191,361.283,502.191,363.885z"/>
		<path style="fill:none;stroke:#333D7A;stroke-width:2;stroke-linecap:round;stroke-miterlimit:10;" d="M516.118,379.26
			c-1.435-3.687-5.02-6.301-9.215-6.301c-4.205,0-7.796,2.625-9.225,6.326"/>
	</g>
	
		<ellipse transform="matrix(0.9529 -0.3032 0.3032 0.9529 -62.3077 110.5611)" style="fill:#06165C;" cx="324.86" cy="255.915" rx="19.839" ry="19.839"/>
	<polygon style="fill:#FFFFFF;" points="331.697,255.646 320.898,249.478 320.955,261.914 	"/>
	<path style="fill:none;stroke:#333D7A;stroke-width:2;stroke-linecap:round;stroke-miterlimit:10;" d="M371.434,127.221h-1.762
		c-0.336-1.682-0.98-3.249-1.854-4.658l1.288-1.288c1.028-1.028,1.028-2.694,0-3.722l-0.513-0.513c-1.028-1.028-2.694-1.028-3.722,0
		l-1.204,1.204c-1.392-0.933-2.963-1.615-4.646-2.008v-1.756c0-1.454-1.178-2.632-2.632-2.632h-0.726
		c-1.454,0-2.632,1.178-2.632,2.632v1.646c-1.712,0.339-3.307,0.995-4.737,1.891l-1.21-1.21c-1.028-1.028-2.694-1.028-3.722,0
		l-0.513,0.513c-1.028,1.028-1.028,2.694,0,3.722l1.147,1.147c-0.937,1.41-1.621,2.999-2.004,4.704h-1.702
		c-1.453,0-2.632,1.178-2.632,2.632v0.726c0,1.453,1.178,2.632,2.632,2.632h1.64c0.352,1.704,1.02,3.29,1.924,4.71l-1.237,1.237
		c-1.028,1.028-1.028,2.694,0,3.722l0.513,0.513c1.028,1.028,2.694,1.028,3.722,0l1.207-1.207c1.397,0.913,2.963,1.585,4.643,1.959
		v1.807c0,1.454,1.178,2.632,2.632,2.632h0.726c1.454,0,2.632-1.178,2.632-2.632v-1.758c1.674-0.348,3.232-1.002,4.631-1.885
		l1.315,1.315c1.028,1.028,2.694,1.028,3.722,0l0.513-0.513c1.028-1.028,1.028-2.694,0-3.722l-1.265-1.265
		c0.91-1.379,1.579-2.927,1.963-4.586h1.862c1.454,0,2.632-1.178,2.632-2.632v-0.726C374.065,128.4,372.887,127.221,371.434,127.221
		z M355.792,137.069c-3.894,0-7.06-3.166-7.06-7.06c0-3.894,3.166-7.06,7.06-7.06c3.894,0,7.06,3.166,7.06,7.06
		C362.852,133.903,359.686,137.069,355.792,137.069z"/>
	<rect x="437.713" y="393.12" style="fill:#D1D7FA;" width="161.52" height="52.59"/>
	<g>
		<path style="fill:#FFFFFF;" d="M468.248,364.737h-31.384v0.187c-0.018,0-0.036-0.002-0.055-0.002
			c-13.264,0-24.016,10.753-24.016,24.017c0,13.264,10.753,24.016,24.016,24.016c13.264,0,24.016-10.753,24.016-24.016
			c0-6.563-2.635-12.509-6.902-16.844L468.248,364.737z"/>
		
			<line style="fill:none;stroke:#333D7A;stroke-width:2;stroke-linecap:round;stroke-miterlimit:10;" x1="427.065" y1="382.83" x2="449.171" y2="382.83"/>
		
			<line style="fill:none;stroke:#333D7A;stroke-width:2;stroke-linecap:round;stroke-miterlimit:10;" x1="427.065" y1="394.841" x2="449.171" y2="394.841"/>
	</g>
	<g>
		
			<line style="fill:none;stroke:#FFFFFF;stroke-width:2;stroke-miterlimit:10;" x1="598.482" y1="313.578" x2="598.482" y2="168.597"/>
		
			<line style="fill:none;stroke:#FFFFFF;stroke-width:2;stroke-linecap:round;stroke-miterlimit:10;" x1="302.587" y1="434.454" x2="557.424" y2="434.454"/>
		<line style="fill:none;stroke:#FFFFFF;stroke-width:2;stroke-miterlimit:10;" x1="419.328" y1="89.92" x2="555.806" y2="89.92"/>
		
			<line style="fill:none;stroke:#FFFFFF;stroke-width:2;stroke-miterlimit:10;" x1="663.544" y1="274.305" x2="609.726" y2="274.305"/>
	</g>
	<g>
		<g>
			
				<line style="fill:none;stroke:#FFFFFF;stroke-width:2;stroke-linecap:round;stroke-miterlimit:10;" x1="614.523" y1="120.516" x2="614.523" y2="136.008"/>
			
				<line style="fill:none;stroke:#FFFFFF;stroke-width:2;stroke-linecap:round;stroke-miterlimit:10;" x1="622.199" y1="128.262" x2="606.707" y2="128.262"/>
		</g>
		<path style="fill:none;stroke:#FFFFFF;stroke-width:2;stroke-linecap:round;stroke-miterlimit:10;" d="M397.233,414.881
			c0,2.614,2.119,4.732,4.732,4.732c2.614,0,4.732-2.119,4.732-4.732c0-2.614-2.119-4.733-4.732-4.733
			C399.352,410.148,397.233,412.267,397.233,414.881z"/>
		
			<circle style="fill:none;stroke:#FFFFFF;stroke-width:2;stroke-linecap:round;stroke-miterlimit:10;" cx="593.278" cy="108.305" r="4.732"/>
		<path style="fill:none;stroke:#333D7A;stroke-width:2;stroke-linecap:round;stroke-miterlimit:10;" d="M341.735,288.729
			c0,2.602,2.11,4.712,4.712,4.712c2.602,0,4.712-2.11,4.712-4.712c0-2.602-2.11-4.712-4.712-4.712
			C343.844,284.017,341.735,286.127,341.735,288.729z"/>
		<g>
			
				<line style="fill:none;stroke:#FFFFFF;stroke-width:2;stroke-linecap:round;stroke-miterlimit:10;" x1="548.675" y1="406.641" x2="548.675" y2="422.132"/>
			
				<line style="fill:none;stroke:#FFFFFF;stroke-width:2;stroke-linecap:round;stroke-miterlimit:10;" x1="556.351" y1="414.386" x2="540.859" y2="414.386"/>
		</g>
		<path style="fill:none;stroke:#FFFFFF;stroke-width:2;stroke-miterlimit:10;" d="M637.127,296.709
			c0,2.877-2.332,5.209-5.209,5.209s-5.209-2.332-5.209-5.209c0-2.877,2.332-5.209,5.209-5.209S637.127,293.832,637.127,296.709z"/>
	</g>
	<g>
		<path style="fill:#06165C;" d="M585.19,300.808H379.098c-2.79,0-5.051-2.262-5.051-5.051V165.221c0-2.79,2.262-5.051,5.051-5.051
			H585.19c2.79,0,5.051,2.262,5.051,5.051v130.535C590.242,298.547,587.98,300.808,585.19,300.808z"/>
		<path style="fill:#D1D7FA;" d="M380.046,292.868V168.111c0-1.072,0.869-1.941,1.941-1.941h200.314
			c1.072,0,1.941,0.869,1.941,1.941v124.757c0,1.072-0.869,1.941-1.941,1.941H381.987
			C380.915,294.809,380.046,293.94,380.046,292.868z"/>
		<rect x="377.094" y="267.984" style="fill:#06165C;" width="209.564" height="30.818"/>
		<rect x="408.754" y="113.925" style="fill:#E3E7FA;" width="147.052" height="118.247"/>
		<rect x="408.754" y="104.317" style="fill:#06165C;" width="147.052" height="16.846"/>
		<path style="fill:#FFFFFF;" d="M544.024,112.156c0,1.553,1.259,2.811,2.811,2.811c1.553,0,2.811-1.259,2.811-2.811
			c0-1.553-1.259-2.811-2.811-2.811C545.282,109.344,544.024,110.603,544.024,112.156z"/>
		<circle style="fill:#FFFFFF;" cx="536.527" cy="112.156" r="2.811"/>
		<circle style="fill:#FFFFFF;" cx="526.219" cy="112.156" r="2.811"/>
		<rect x="424.466" y="136.111" style="fill:#889EFA;" width="23.384" height="23.384"/>
		<rect x="458.848" y="136.111" style="fill:#FFFFFF;" width="81.108" height="23.384"/>
		<rect x="424.466" y="168.136" style="fill:#FFFFFF;" width="114.927" height="46.981"/>
		
			<line style="fill:none;stroke:#FFFFFF;stroke-width:2;stroke-miterlimit:10;" x1="365.709" y1="274.627" x2="590.178" y2="274.627"/>
		<path style="fill:#06165C;" d="M523.955,328.404h-90.627c-2.08,0-3.767-1.687-3.767-3.767v-3.157c0-2.081,1.687-3.767,3.767-3.767
			h90.627c2.081,0,3.767,1.686,3.767,3.767v3.157C527.722,326.718,526.035,328.404,523.955,328.404z"/>
		<rect x="408.802" y="232.358" style="fill:#889EFA;" width="147.083" height="35.642"/>
		
			<line style="fill:none;stroke:#FFFFFF;stroke-width:2;stroke-linecap:round;stroke-miterlimit:10;" x1="425.684" y1="243.72" x2="481.923" y2="243.72"/>
		
			<line style="fill:none;stroke:#FFFFFF;stroke-width:2;stroke-linecap:round;stroke-miterlimit:10;" x1="425.684" y1="254.448" x2="539.94" y2="254.448"/>
		<rect x="436.587" y="300.796" style="fill:#889EFA;" width="84.352" height="16.722"/>
		
			<line style="fill:none;stroke:#333D7A;stroke-width:2;stroke-linecap:round;stroke-miterlimit:10;" x1="469.315" y1="146.958" x2="528.742" y2="146.958"/>
		
			<line style="fill:none;stroke:#333D7A;stroke-width:2;stroke-linecap:round;stroke-miterlimit:10;" x1="469.315" y1="180.039" x2="528.742" y2="180.039"/>
		
			<line style="fill:none;stroke:#333D7A;stroke-width:2;stroke-linecap:round;stroke-miterlimit:10;" x1="469.315" y1="191.381" x2="528.742" y2="191.381"/>
		
			<line style="fill:none;stroke:#333D7A;stroke-width:2;stroke-linecap:round;stroke-miterlimit:10;" x1="469.315" y1="202.723" x2="528.742" y2="202.723"/>
		
			<circle style="fill:none;stroke:#333D7A;stroke-width:2;stroke-linecap:round;stroke-miterlimit:10;" cx="445.285" cy="190.921" r="9.126"/>
	</g>
	<g>
		<path style="fill:#06165C;" d="M598.413,315.03c-18.53,0-33.56,15.02-33.56,33.56c0,18.53,15.03,33.56,33.56,33.56
			c18.54,0,33.56-15.03,33.56-33.56C631.973,330.05,616.953,315.03,598.413,315.03z M598.413,376.15
			c-15.2,0-27.56-12.36-27.56-27.56c0-15.2,12.36-27.56,27.56-27.56c15.2,0,27.56,12.36,27.56,27.56
			C625.973,363.79,613.613,376.15,598.413,376.15z"/>
		<g>
			<g>
				<path style="fill:#06165C;" d="M600.963,311.634h-5.189c-1.18,0-2.194,0.837-2.418,1.996l-1.248,6.468h12.447l-1.17-6.441
					C603.174,312.486,602.154,311.634,600.963,311.634z"/>
				<path style="fill:#06165C;" d="M573.14,320.967l-3.669,3.669c-0.835,0.835-0.96,2.144-0.298,3.121l3.691,5.456l8.801-8.801
					l-5.382-3.728C575.304,320.006,573.981,320.125,573.14,320.967z"/>
				<path style="fill:#06165C;" d="M560.065,347.241v5.189c0,1.18,0.837,2.194,1.996,2.418l6.468,1.248v-12.447l-6.441,1.17
					C560.916,345.03,560.065,346.05,560.065,347.241z"/>
				<path style="fill:#06165C;" d="M569.397,375.064l3.669,3.669c0.834,0.835,2.144,0.96,3.121,0.298l5.456-3.691l-8.801-8.801
					l-3.728,5.382C568.436,372.899,568.556,374.223,569.397,375.064z"/>
				<path style="fill:#06165C;" d="M595.671,388.139h5.189c1.18,0,2.194-0.837,2.418-1.996l1.248-6.468h-12.447l1.17,6.441
					C593.461,387.288,594.481,388.139,595.671,388.139z"/>
				<path style="fill:#06165C;" d="M623.495,378.806l3.669-3.669c0.834-0.835,0.96-2.144,0.298-3.121l-3.691-5.456l-8.801,8.801
					l5.382,3.728C621.33,379.767,622.653,379.648,623.495,378.806z"/>
				<path style="fill:#06165C;" d="M636.57,352.533v-5.189c0-1.18-0.837-2.194-1.996-2.418l-6.468-1.248v12.447l6.441-1.17
					C635.718,354.743,636.57,353.723,636.57,352.533z"/>
				<path style="fill:#06165C;" d="M627.237,324.709l-3.669-3.669c-0.835-0.835-2.144-0.96-3.121-0.298l-5.456,3.691l8.801,8.801
					l3.728-5.382C628.198,326.874,628.078,325.551,627.237,324.709z"/>
			</g>
			
				<ellipse transform="matrix(0.6068 -0.7949 0.7949 0.6068 -42.3022 612.7806)" style="fill:none;stroke:#FFFFFF;stroke-width:2;stroke-miterlimit:10;" cx="598.205" cy="349.147" rx="17.707" ry="17.707"/>
		</g>
	</g>
</g>
</svg>
